# xmcd
#
# Track frame offsets: 
#        183
#        61233
#        114333
#        135533
#        162258
#        189958
#
# Disc length: 2855 seconds
#
# Revision: 1
# Processed by: cddbd v1.5.2PL0 Copyright (c) Steve Scherf et al.
# Submitted via: ExactAudioCopy v0.99pb5
#
DISCID=450b2506
DTITLE=Michal Urbaniak Quartet - Friday Night at the Village Vanguard
DYEAR=1885
DGENRE=Fusion
TTITLE0=Stella By Starlight
TTITLE1=Stardust
TTITLE2=I Just Love You So
TTITLE3=Satin Lady
TTITLE4=Viskan
TTITLE5=Folksong
EXTD=YEAR: 1885
EXTT0=
EXTT1=
EXTT2=
EXTT3=
EXTT4=
EXTT5=
PLAYORDER=
